Gait_normal_01_analogdata.mot
version=1
nRows=38
nColumns=19
inDegrees=yes
endheader
time	1_ground_force_vx	1_ground_force_vy	1_ground_force_vz	1_ground_force_px	1_ground_force_py	1_ground_force_pz	1_ground_torque_x	1_ground_torque_y	1_ground_torque_z	2_ground_force_vx	2_ground_force_vy	2_ground_force_vz	2_ground_force_px	2_ground_force_py	2_ground_force_pz	2_ground_torque_x	2_ground_torque_y	2_ground_torque_z
0.675000	-46.473757	686.730713	38.186585	-0.124460	0.000000	-0.250878	0.046595	-0.688516	-0.038286	0.000000	0.000000	-0.000000	-0.200000	0.000000	0.302000	0.000000	0.000000	-0.000000
0.676000	-47.275530	672.033936	39.336686	-0.122446	0.000000	-0.250441	0.031212	-0.443688	-0.025971	0.000000	0.000000	-0.000000	-0.200000	0.000000	0.302000	0.000000	0.000000	-0.000000
0.677000	-46.562841	677.982605	37.567299	-0.123064	0.000000	-0.250660	0.039487	-0.574953	-0.031858	0.000000	0.000000	-0.000000	-0.200000	0.000000	0.302000	0.000000	0.000000	-0.000000
0.678000	-47.097357	680.082153	39.248215	-0.122963	0.000000	-0.250728	0.050973	-0.736044	-0.042478	0.000000	0.000000	-0.000000	-0.200000	0.000000	0.302000	0.000000	0.000000	-0.000000
0.679000	-47.453699	680.082153	39.336686	-0.122379	0.000000	-0.249251	0.045770	-0.655952	-0.037941	0.000000	0.000000	-0.000000	-0.200000	0.000000	0.302000	0.000000	0.000000	-0.000000
0.680000	-46.919184	684.631165	40.309845	-0.123231	0.000000	-0.249006	0.031679	-0.462246	-0.027216	0.000000	0.000000	-0.000000	-0.200000	0.000000	0.302000	0.000000	0.000000	-0.000000
0.681000	-46.295584	685.330994	40.132908	-0.122175	0.000000	-0.248646	0.084560	-1.251780	-0.073304	0.000000	0.000000	-0.000000	-0.200000	0.000000	0.302000	0.000000	0.000000	-0.000000
0.682000	-46.830100	686.730713	41.106068	-0.123338	0.000000	-0.248605	0.047064	-0.690160	-0.041311	0.000000	0.000000	-0.000000	-0.200000	0.000000	0.302000	0.000000	0.000000	-0.000000
0.683000	-46.741015	682.531616	41.283005	-0.122289	0.000000	-0.247629	0.038002	-0.554915	-0.033564	0.000000	0.000000	-0.000000	-0.200000	0.000000	0.302000	0.000000	0.000000	-0.000000
0.684000	-47.186442	691.979553	41.725354	-0.123609	0.000000	-0.247344	0.041838	-0.613542	-0.036996	0.000000	0.000000	-0.000000	-0.200000	0.000000	0.302000	0.000000	0.000000	-0.000000
0.685000	-47.364615	691.279663	42.079232	-0.122479	0.000000	-0.247097	0.038043	-0.555235	-0.033798	0.000000	0.000000	-0.000000	-0.200000	0.000000	0.302000	0.000000	0.000000	-0.000000
0.686000	-46.028327	689.530090	42.786984	-0.122660	0.000000	-0.246707	0.031204	-0.467448	-0.029006	0.000000	0.000000	-0.000000	-0.200000	0.000000	0.302000	0.000000	0.000000	-0.000000
0.687000	-45.850158	695.478760	42.610047	-0.123352	0.000000	-0.246412	0.048174	-0.730730	-0.044770	0.000000	0.000000	-0.000000	-0.200000	0.000000	0.302000	0.000000	0.000000	-0.000000
0.688000	-45.137469	690.579834	43.760144	-0.122701	0.000000	-0.245303	0.046689	-0.714323	-0.045265	0.000000	0.000000	-0.000000	-0.200000	0.000000	0.302000	0.000000	0.000000	-0.000000
0.689000	-44.959296	694.079041	45.175652	-0.123331	0.000000	-0.245874	0.025170	-0.388578	-0.025291	0.000000	0.000000	-0.000000	-0.200000	0.000000	0.302000	0.000000	0.000000	-0.000000
0.690000	-45.761070	697.928223	46.060345	-0.123215	0.000000	-0.245237	0.035520	-0.541729	-0.035752	0.000000	0.000000	-0.000000	-0.200000	0.000000	0.302000	0.000000	0.000000	-0.000000
0.691000	-45.671985	687.080627	46.945039	-0.121591	0.000000	-0.245189	0.025364	-0.381569	-0.026071	0.000000	0.000000	-0.000000	-0.200000	0.000000	0.302000	0.000000	0.000000	-0.000000
0.692000	-45.404727	696.878479	46.237283	-0.124527	0.000000	-0.245431	0.026821	-0.411657	-0.027313	0.000000	0.000000	-0.000000	-0.200000	0.000000	0.302000	0.000000	0.000000	-0.000000
0.693000	-44.424785	700.727600	47.918199	-0.122473	0.000000	-0.245913	0.036694	-0.578788	-0.039580	0.000000	0.000000	-0.000000	-0.200000	0.000000	0.302000	0.000000	0.000000	-0.000000
0.694000	-45.048385	702.127258	48.449014	-0.122896	0.000000	-0.243609	0.031779	-0.495313	-0.034178	0.000000	0.000000	-0.000000	-0.200000	0.000000	0.302000	0.000000	0.000000	-0.000000
0.695000	-45.137470	705.976440	49.952992	-0.123457	0.000000	-0.244751	0.039769	-0.622005	-0.044011	0.000000	0.000000	-0.000000	-0.200000	0.000000	0.302000	0.000000	0.000000	-0.000000
0.696000	-43.623013	706.676270	50.660745	-0.122902	0.000000	-0.244409	0.044478	-0.720528	-0.051654	0.000000	0.000000	-0.000000	-0.200000	0.000000	0.302000	0.000000	0.000000	-0.000000
0.697000	-44.246613	707.376099	51.103093	-0.123911	0.000000	-0.244791	0.042715	-0.682884	-0.049334	0.000000	0.000000	-0.000000	-0.200000	0.000000	0.302000	0.000000	0.000000	-0.000000
0.698000	-43.801182	705.976440	51.899316	-0.123513	0.000000	-0.244172	0.034855	-0.561779	-0.041299	0.000000	0.000000	-0.000000	-0.200000	0.000000	0.302000	0.000000	0.000000	-0.000000
0.699000	-42.910324	710.875366	52.164724	-0.123982	0.000000	-0.243908	0.037607	-0.623021	-0.045718	0.000000	0.000000	-0.000000	-0.200000	0.000000	0.302000	0.000000	0.000000	-0.000000
0.700000	-43.712098	710.525452	53.580232	-0.123476	0.000000	-0.243747	0.040630	-0.660427	-0.049802	0.000000	0.000000	-0.000000	-0.200000	0.000000	0.302000	0.000000	0.000000	-0.000000
0.701000	-41.752209	711.575195	54.907270	-0.124066	0.000000	-0.243135	0.029801	-0.507899	-0.039191	0.000000	0.000000	-0.000000	-0.200000	0.000000	0.302000	0.000000	0.000000	-0.000000
0.702000	-41.663125	714.724487	53.403291	-0.124325	0.000000	-0.242916	0.044453	-0.762582	-0.056979	0.000000	0.000000	-0.000000	-0.200000	0.000000	0.302000	0.000000	0.000000	-0.000000
0.703000	-40.148667	711.575195	56.942060	-0.123743	0.000000	-0.242483	0.035214	-0.624108	-0.049943	0.000000	0.000000	-0.000000	-0.200000	0.000000	0.302000	0.000000	0.000000	-0.000000
0.704000	-42.732156	712.275024	57.738282	-0.124354	0.000000	-0.242490	0.024778	-0.413010	-0.033479	0.000000	0.000000	-0.000000	-0.200000	0.000000	0.302000	0.000000	0.000000	-0.000000
0.705000	-40.505010	715.424316	58.092161	-0.124310	0.000000	-0.242538	0.033315	-0.588427	-0.047780	0.000000	0.000000	-0.000000	-0.200000	0.000000	0.302000	0.000000	0.000000	-0.000000
0.706000	-41.306783	703.876892	59.596139	-0.122874	0.000000	-0.241867	0.026173	-0.445988	-0.037761	0.000000	0.000000	-0.000000	-0.200000	0.000000	0.302000	0.000000	0.000000	-0.000000
0.707000	-40.594095	713.324829	59.330732	-0.125324	0.000000	-0.242440	0.028932	-0.508389	-0.042285	0.000000	0.000000	-0.000000	-0.200000	0.000000	0.302000	0.000000	0.000000	-0.000000
0.708000	-39.881410	714.024658	60.038484	-0.123219	0.000000	-0.243056	0.041870	-0.749634	-0.063033	0.000000	0.000000	-0.000000	-0.200000	0.000000	0.302000	0.000000	0.000000	-0.000000
0.709000	-40.861353	714.024658	61.277051	-0.123500	0.000000	-0.240823	0.030028	-0.524716	-0.045031	0.000000	0.000000	-0.000000	-0.200000	0.000000	0.302000	0.000000	0.000000	-0.000000
0.710000	-40.059580	716.124207	62.250215	-0.124043	0.000000	-0.241871	0.046708	-0.834973	-0.072581	0.000000	0.000000	-0.000000	-0.200000	0.000000	0.302000	0.000000	0.000000	-0.000000
0.711000	-40.148668	718.223755	62.073278	-0.124125	0.000000	-0.241409	0.041165	-0.736400	-0.063644	0.000000	0.000000	-0.000000	-0.200000	0.000000	0.302000	0.000000	0.000000	-0.000000
0.712000	-40.415926	717.873779	62.957967	-0.125106	0.000000	-0.241701	0.040938	-0.727154	-0.063772	0.000000	0.000000	-0.000000	-0.200000	0.000000	0.302000	0.000000	0.000000	-0.000000
